# xmcd
#
# Track frame offsets: 
#        150
#        13962
#        25350
#        41877
#        60547
#        75327
#        88207
#        99247
#        116942
#        132007
#        147897
#        163347
#        178365
#        190665
#        204822
#        221420
#        236430
#        253647
#        268722
#        280130
#        293912
#        309090
#
# Disc length: 4334 seconds
#
# Revision: 5
# Processed by: cddbd v1.5.2PL0 Copyright (c) Steve Scherf et al.
# Submitted via: ExactAudioCopy v1.0b1
#
DISCID=3d10ec16
DTITLE=Various Artist - Contemporary Country Vol. 5 The Late '80s
DYEAR=1992
DGENRE=Country
TTITLE0=Clint Black - Better Man
TTITLE1=Highway 101 - Cry Cry Cry
TTITLE2=Randy Travis - I Told You So
TTITLE3=K.T. Oslin - I'll Always Come Back
TTITLE4=Keith Whitley - I Wonder Do You Think Of Me
TTITLE5=Hank Williams Jr. And Hank Williams Sr. - There's A Tear In My
TTITLE5=Beer
TTITLE6=Vern Gosdin - Set 'Em Up Joe
TTITLE7=Restless Heart - Bluest Eyes In Texas
TTITLE8=Rosanne Cash - If You Change Your Mind
TTITLE9=Reba McEntire - What Am I Gonna Do About You
TTITLE10=Merle Haggard - Twinkle Twinkle Lucky Star
TTITLE11=Nitty Gritty Dirt Band - Fishin' In The Dark
TTITLE12=Tanya Tucker - Strong Enough To Bend
TTITLE13=George Strait - Ocean Front Property
TTITLE14=Judds - Cry Myself To Sleep
TTITLE15=Ricky Van Shelton - Somebody Lied
TTITLE16=Eddy Raven - Joe Knows How To Live
TTITLE17=Eddie Rabbitt - The Wanderer
TTITLE18=Patty Loveless - Timber I'm Falling In Love
TTITLE19=Alabama - High Cotton
TTITLE20=Kathy Mattea - Eighteen Wheels And A Dozen Roses
TTITLE21=Earl Thomas Conley And Emmylou Harris - We Believe In Happy E
TTITLE21=ndings
EXTD=
EXTT0=
EXTT1=
EXTT2=
EXTT3=
EXTT4=
EXTT5=
EXTT6=
EXTT7=
EXTT8=
EXTT9=
EXTT10=
EXTT11=
EXTT12=
EXTT13=
EXTT14=
EXTT15=
EXTT16=
EXTT17=
EXTT18=
EXTT19=
EXTT20=
EXTT21=
PLAYORDER=
